<mxfile host="app.diagrams.net" modified="2023-05-17T17:41:39.474Z" agent="5.0 (Macintosh; Intel Mac OS X 10_15_7) AppleWebKit/537.36 (KHTML, like Gecko) Chrome/113.0.0.0 Safari/537.36" etag="_PyRyfe9sya4NGgSaqbi" version="20.8.1" type="github">
  <diagram id="yWwvPQ7X9PmBNxhYb26-" name="第 1 页">
    <mxGraphModel dx="1026" dy="595" grid="0" gridSize="10" guides="1" tooltips="1" connect="1" arrows="1" fold="1" page="1" pageScale="1" pageWidth="1169" pageHeight="827" math="0" shadow="1">
      <root>
        <mxCell id="0" />
        <mxCell id="1" parent="0" />
        <mxCell id="oOg--kped5uBWsJNJ3zZ-2" style="edgeStyle=orthogonalEdgeStyle;rounded=0;orthogonalLoop=1;jettySize=auto;html=1;entryX=0.5;entryY=0;entryDx=0;entryDy=0;" edge="1" parent="1" source="_Fqwc9NIt0zZCDV-KgZk-3" target="_Fqwc9NIt0zZCDV-KgZk-4">
          <mxGeometry relative="1" as="geometry" />
        </mxCell>
        <mxCell id="_Fqwc9NIt0zZCDV-KgZk-3" value="f_inter_twell" style="whiteSpace=wrap;html=1;rounded=1;comic=1;strokeColor=#314354;strokeWidth=2;fontFamily=Helvetica;fontSize=15;fontColor=#ffffff;fillColor=#647687;" parent="1" vertex="1">
          <mxGeometry x="436" y="136" width="161" height="60" as="geometry" />
        </mxCell>
        <mxCell id="oOg--kped5uBWsJNJ3zZ-3" style="edgeStyle=orthogonalEdgeStyle;rounded=0;orthogonalLoop=1;jettySize=auto;html=1;entryX=0.5;entryY=0;entryDx=0;entryDy=0;fontSize=11;" edge="1" parent="1" source="_Fqwc9NIt0zZCDV-KgZk-4" target="_Fqwc9NIt0zZCDV-KgZk-5">
          <mxGeometry relative="1" as="geometry" />
        </mxCell>
        <mxCell id="_Fqwc9NIt0zZCDV-KgZk-4" value="f_pangolin_search_post" style="whiteSpace=wrap;html=1;rounded=1;comic=1;strokeColor=#B3B3B3;strokeWidth=2;fontFamily=Helvetica;fontSize=15;fontColor=default;fillColor=#D5E8D4;" parent="1" vertex="1">
          <mxGeometry x="436" y="234" width="161" height="60" as="geometry" />
        </mxCell>
        <mxCell id="oOg--kped5uBWsJNJ3zZ-5" style="edgeStyle=orthogonalEdgeStyle;rounded=0;orthogonalLoop=1;jettySize=auto;html=1;entryX=0.5;entryY=0;entryDx=0;entryDy=0;fontSize=11;" edge="1" parent="1" source="_Fqwc9NIt0zZCDV-KgZk-5" target="_Fqwc9NIt0zZCDV-KgZk-8">
          <mxGeometry relative="1" as="geometry" />
        </mxCell>
        <mxCell id="_Fqwc9NIt0zZCDV-KgZk-5" value="f_inter_twell_rt_router" style="whiteSpace=wrap;html=1;rounded=1;comic=1;strokeColor=#B3B3B3;strokeWidth=2;fontFamily=Helvetica;fontSize=15;fontColor=default;fillColor=#FFCCCC;" parent="1" vertex="1">
          <mxGeometry x="436" y="342" width="162" height="60" as="geometry" />
        </mxCell>
        <mxCell id="oOg--kped5uBWsJNJ3zZ-6" value="" style="edgeStyle=orthogonalEdgeStyle;rounded=0;orthogonalLoop=1;jettySize=auto;html=1;fontSize=11;" edge="1" parent="1" source="_Fqwc9NIt0zZCDV-KgZk-8" target="_Fqwc9NIt0zZCDV-KgZk-11">
          <mxGeometry relative="1" as="geometry" />
        </mxCell>
        <mxCell id="_Fqwc9NIt0zZCDV-KgZk-8" value="f_inter_twell_rt" style="whiteSpace=wrap;html=1;rounded=1;comic=1;strokeColor=#B3B3B3;strokeWidth=2;fontFamily=Helvetica;fontSize=15;fontColor=default;fillColor=#A9C4EB;" parent="1" vertex="1">
          <mxGeometry x="435" y="447" width="163" height="60" as="geometry" />
        </mxCell>
        <mxCell id="_Fqwc9NIt0zZCDV-KgZk-11" value="f_itts_worker_uniq" style="whiteSpace=wrap;html=1;rounded=1;comic=1;strokeColor=#B3B3B3;strokeWidth=2;fontFamily=Helvetica;fontSize=15;fontColor=default;fillColor=#E6FFCC;" parent="1" vertex="1">
          <mxGeometry x="434.5" y="552" width="164" height="60" as="geometry" />
        </mxCell>
        <mxCell id="oOg--kped5uBWsJNJ3zZ-7" value="f_itts_worker_ota" style="whiteSpace=wrap;html=1;rounded=1;comic=1;strokeColor=#B3B3B3;strokeWidth=2;fontFamily=Helvetica;fontSize=15;fontColor=default;fillColor=#E6FFCC;" vertex="1" parent="1">
          <mxGeometry x="229.5" y="552" width="164" height="60" as="geometry" />
        </mxCell>
        <mxCell id="oOg--kped5uBWsJNJ3zZ-8" value="f_ttsi_worker_afare" style="whiteSpace=wrap;html=1;rounded=1;comic=1;strokeColor=#B3B3B3;strokeWidth=2;fontFamily=Helvetica;fontSize=15;fontColor=default;fillColor=#E6FFCC;" vertex="1" parent="1">
          <mxGeometry x="639.5" y="552" width="164" height="60" as="geometry" />
        </mxCell>
        <mxCell id="oOg--kped5uBWsJNJ3zZ-9" value="" style="endArrow=classic;html=1;rounded=0;fontSize=11;entryX=0.75;entryY=0;entryDx=0;entryDy=0;exitX=0;exitY=1;exitDx=0;exitDy=0;" edge="1" parent="1" source="_Fqwc9NIt0zZCDV-KgZk-8" target="oOg--kped5uBWsJNJ3zZ-7">
          <mxGeometry width="50" height="50" relative="1" as="geometry">
            <mxPoint x="374" y="629" as="sourcePoint" />
            <mxPoint x="420" y="576" as="targetPoint" />
          </mxGeometry>
        </mxCell>
        <mxCell id="oOg--kped5uBWsJNJ3zZ-11" value="" style="endArrow=classic;html=1;rounded=0;fontSize=11;exitX=1;exitY=1;exitDx=0;exitDy=0;" edge="1" parent="1" source="_Fqwc9NIt0zZCDV-KgZk-8" target="oOg--kped5uBWsJNJ3zZ-8">
          <mxGeometry width="50" height="50" relative="1" as="geometry">
            <mxPoint x="482" y="622" as="sourcePoint" />
            <mxPoint x="532" y="572" as="targetPoint" />
          </mxGeometry>
        </mxCell>
        <mxCell id="oOg--kped5uBWsJNJ3zZ-16" style="edgeStyle=orthogonalEdgeStyle;rounded=0;orthogonalLoop=1;jettySize=auto;html=1;fontSize=11;entryX=0;entryY=0.5;entryDx=0;entryDy=0;exitX=0.5;exitY=1;exitDx=0;exitDy=0;" edge="1" parent="1" source="oOg--kped5uBWsJNJ3zZ-12" target="_Fqwc9NIt0zZCDV-KgZk-4">
          <mxGeometry relative="1" as="geometry">
            <mxPoint x="365" y="300" as="targetPoint" />
          </mxGeometry>
        </mxCell>
        <mxCell id="oOg--kped5uBWsJNJ3zZ-12" value="f_b2b_opensupplier_nts" style="whiteSpace=wrap;html=1;rounded=1;comic=1;strokeColor=#B3B3B3;strokeWidth=2;fontFamily=Helvetica;fontSize=15;fontColor=default;fillColor=#99FFFF;" vertex="1" parent="1">
          <mxGeometry x="241" y="136" width="161" height="60" as="geometry" />
        </mxCell>
        <mxCell id="oOg--kped5uBWsJNJ3zZ-17" value="" style="edgeStyle=orthogonalEdgeStyle;rounded=0;orthogonalLoop=1;jettySize=auto;html=1;fontSize=11;" edge="1" parent="1" source="oOg--kped5uBWsJNJ3zZ-13" target="oOg--kped5uBWsJNJ3zZ-12">
          <mxGeometry relative="1" as="geometry" />
        </mxCell>
        <mxCell id="oOg--kped5uBWsJNJ3zZ-13" value="f_ttsi_inter_site" style="whiteSpace=wrap;html=1;rounded=1;comic=1;strokeColor=#56517e;strokeWidth=2;fontFamily=Helvetica;fontSize=15;fillColor=#d0cee2;" vertex="1" parent="1">
          <mxGeometry x="241" y="36" width="161" height="60" as="geometry" />
        </mxCell>
        <mxCell id="oOg--kped5uBWsJNJ3zZ-22" style="edgeStyle=orthogonalEdgeStyle;rounded=0;orthogonalLoop=1;jettySize=auto;html=1;entryX=0;entryY=0.5;entryDx=0;entryDy=0;fontSize=11;" edge="1" parent="1" source="oOg--kped5uBWsJNJ3zZ-18" target="oOg--kped5uBWsJNJ3zZ-21">
          <mxGeometry relative="1" as="geometry" />
        </mxCell>
        <mxCell id="oOg--kped5uBWsJNJ3zZ-18" value="f_inter_tts_policy" style="whiteSpace=wrap;html=1;rounded=1;comic=1;strokeColor=#0e8088;strokeWidth=2;fontFamily=Helvetica;fontSize=15;fillColor=#b0e3e6;" vertex="1" parent="1">
          <mxGeometry x="229.5" y="678" width="164" height="60" as="geometry" />
        </mxCell>
        <mxCell id="oOg--kped5uBWsJNJ3zZ-35" value="" style="edgeStyle=orthogonalEdgeStyle;rounded=0;orthogonalLoop=1;jettySize=auto;html=1;fontSize=11;entryX=0.5;entryY=0;entryDx=0;entryDy=0;exitX=0.5;exitY=1;exitDx=0;exitDy=0;" edge="1" parent="1" source="oOg--kped5uBWsJNJ3zZ-18" target="oOg--kped5uBWsJNJ3zZ-19">
          <mxGeometry relative="1" as="geometry" />
        </mxCell>
        <mxCell id="oOg--kped5uBWsJNJ3zZ-19" value="" style="shape=datastore;whiteSpace=wrap;html=1;strokeWidth=1;fontSize=11;fillColor=#f5f5f5;gradientColor=#b3b3b3;strokeColor=#666666;" vertex="1" parent="1">
          <mxGeometry x="281.5" y="767" width="60" height="60" as="geometry" />
        </mxCell>
        <mxCell id="oOg--kped5uBWsJNJ3zZ-23" style="edgeStyle=orthogonalEdgeStyle;rounded=0;orthogonalLoop=1;jettySize=auto;html=1;fontSize=11;entryX=0;entryY=0.5;entryDx=0;entryDy=0;" edge="1" parent="1" source="oOg--kped5uBWsJNJ3zZ-21" target="oOg--kped5uBWsJNJ3zZ-24">
          <mxGeometry relative="1" as="geometry">
            <mxPoint x="716.5" y="708" as="targetPoint" />
          </mxGeometry>
        </mxCell>
        <mxCell id="oOg--kped5uBWsJNJ3zZ-21" value="f_inter_policy_kafkasync" style="whiteSpace=wrap;html=1;rounded=1;comic=1;strokeColor=#0e8088;strokeWidth=2;fontFamily=Helvetica;fontSize=15;fillColor=#b0e3e6;" vertex="1" parent="1">
          <mxGeometry x="448.5" y="678" width="164" height="60" as="geometry" />
        </mxCell>
        <mxCell id="oOg--kped5uBWsJNJ3zZ-24" value="" style="shape=datastore;whiteSpace=wrap;html=1;strokeWidth=1;fontSize=11;fillColor=#e51400;strokeColor=#B20000;fontColor=#ffffff;" vertex="1" parent="1">
          <mxGeometry x="658.5" y="678" width="60" height="60" as="geometry" />
        </mxCell>
        <mxCell id="oOg--kped5uBWsJNJ3zZ-25" value="" style="endArrow=classic;html=1;rounded=0;fontSize=11;exitX=0.5;exitY=0;exitDx=0;exitDy=0;" edge="1" parent="1" source="oOg--kped5uBWsJNJ3zZ-24" target="_Fqwc9NIt0zZCDV-KgZk-11">
          <mxGeometry width="50" height="50" relative="1" as="geometry">
            <mxPoint x="471" y="650" as="sourcePoint" />
            <mxPoint x="521" y="600" as="targetPoint" />
          </mxGeometry>
        </mxCell>
        <mxCell id="oOg--kped5uBWsJNJ3zZ-26" value="" style="endArrow=classic;html=1;rounded=0;fontSize=11;exitX=0.15;exitY=0.05;exitDx=0;exitDy=0;exitPerimeter=0;" edge="1" parent="1" source="oOg--kped5uBWsJNJ3zZ-24" target="oOg--kped5uBWsJNJ3zZ-7">
          <mxGeometry width="50" height="50" relative="1" as="geometry">
            <mxPoint x="471" y="650" as="sourcePoint" />
            <mxPoint x="521" y="600" as="targetPoint" />
          </mxGeometry>
        </mxCell>
        <mxCell id="oOg--kped5uBWsJNJ3zZ-29" style="edgeStyle=orthogonalEdgeStyle;rounded=0;orthogonalLoop=1;jettySize=auto;html=1;entryX=1;entryY=0.5;entryDx=0;entryDy=0;fontSize=11;" edge="1" parent="1" source="oOg--kped5uBWsJNJ3zZ-27" target="_Fqwc9NIt0zZCDV-KgZk-3">
          <mxGeometry relative="1" as="geometry" />
        </mxCell>
        <mxCell id="oOg--kped5uBWsJNJ3zZ-30" style="edgeStyle=orthogonalEdgeStyle;rounded=0;orthogonalLoop=1;jettySize=auto;html=1;entryX=0.5;entryY=0;entryDx=0;entryDy=0;fontSize=11;" edge="1" parent="1" source="oOg--kped5uBWsJNJ3zZ-27" target="oOg--kped5uBWsJNJ3zZ-28">
          <mxGeometry relative="1" as="geometry" />
        </mxCell>
        <mxCell id="oOg--kped5uBWsJNJ3zZ-27" value="f_pangolin_search_compare" style="whiteSpace=wrap;html=1;rounded=1;comic=1;strokeColor=#10739e;strokeWidth=2;fontFamily=Helvetica;fontSize=15;fillColor=#b1ddf0;" vertex="1" parent="1">
          <mxGeometry x="667" y="136" width="197" height="60" as="geometry" />
        </mxCell>
        <mxCell id="oOg--kped5uBWsJNJ3zZ-31" style="edgeStyle=orthogonalEdgeStyle;rounded=0;orthogonalLoop=1;jettySize=auto;html=1;entryX=1;entryY=0.5;entryDx=0;entryDy=0;fontSize=11;" edge="1" parent="1" source="oOg--kped5uBWsJNJ3zZ-28" target="_Fqwc9NIt0zZCDV-KgZk-4">
          <mxGeometry relative="1" as="geometry" />
        </mxCell>
        <mxCell id="oOg--kped5uBWsJNJ3zZ-28" value="" style="shape=datastore;whiteSpace=wrap;html=1;strokeWidth=1;fontSize=11;fillColor=#e51400;strokeColor=#B20000;fontColor=#ffffff;" vertex="1" parent="1">
          <mxGeometry x="735.5" y="234" width="60" height="60" as="geometry" />
        </mxCell>
        <mxCell id="oOg--kped5uBWsJNJ3zZ-32" value="f_pangolin_search_config" style="whiteSpace=wrap;html=1;rounded=1;comic=1;strokeColor=#b85450;strokeWidth=2;fontFamily=Helvetica;fontSize=15;fillColor=#f8cecc;gradientColor=#ea6b66;" vertex="1" parent="1">
          <mxGeometry x="667" y="340" width="197" height="60" as="geometry" />
        </mxCell>
      </root>
    </mxGraphModel>
  </diagram>
</mxfile>
